<svg xmlns="http://www.w3.org/2000/svg" viewBox="0 0 860 1103" width="860" height="1103" font-family="system-ui,-apple-system,Segoe UI,Roboto,sans-serif" role="img" aria-label="One row per prediction of L40S runs 1 to 3 and MI300X run 1, each drawn as measured divided by predicted on a logarithmic axis">
<title>Predicted vs measured — L40S runs 1–3, MI300X run 1</title>
<text x="16.0" y="28.0" fill="#6e7781" font-size="15.5" font-weight="600">Every prediction the runs made, against what the card did</text>
<text x="16.0" y="49.0" fill="#6e7781" font-size="10.5">52 predictions · 30 within ±10 % · 7 had their coefficient fitted to the very run they predict</text>
<circle cx="21.0" cy="68.5" r="3.8" fill="#2f81f7"/>
<text x="30.0" y="72.0" fill="#6e7781" font-size="10.5">within ±10 %</text>
<circle cx="124.1" cy="68.5" r="3.8" fill="#cc7000"/>
<text x="133.1" y="72.0" fill="#6e7781" font-size="10.5">outside ±10 %</text>
<circle cx="233.1" cy="68.5" r="3.8" fill="none" stroke="#6e7781" stroke-width="1.8"/>
<text x="242.1" y="72.0" fill="#6e7781" font-size="10.5">coefficient fitted to that run</text>
<text x="325.1" y="99.0" fill="#6e7781" font-size="10.5" text-anchor="middle">0.4×</text>
<text x="325.1" y="1065.0" fill="#6e7781" font-size="10.5" text-anchor="middle">0.4×</text>
<line x1="325.1" y1="128" x2="325.1" y2="1043.0" stroke="#8b949e" stroke-width="1" opacity="0.35"/>
<text x="373.0" y="99.0" fill="#6e7781" font-size="10.5" text-anchor="middle">0.5×</text>
<text x="373.0" y="1065.0" fill="#6e7781" font-size="10.5" text-anchor="middle">0.5×</text>
<line x1="373.0" y1="128" x2="373.0" y2="1043.0" stroke="#8b949e" stroke-width="1" opacity="0.35"/>
<text x="445.3" y="99.0" fill="#6e7781" font-size="10.5" text-anchor="middle">0.7×</text>
<text x="445.3" y="1065.0" fill="#6e7781" font-size="10.5" text-anchor="middle">0.7×</text>
<line x1="445.3" y1="128" x2="445.3" y2="1043.0" stroke="#8b949e" stroke-width="1" opacity="0.35"/>
<text x="522.0" y="99.0" fill="#6e7781" font-size="10.5" text-anchor="middle">1×</text>
<text x="522.0" y="1065.0" fill="#6e7781" font-size="10.5" text-anchor="middle">1×</text>
<text x="609.1" y="99.0" fill="#6e7781" font-size="10.5" text-anchor="middle">1.5×</text>
<text x="609.1" y="1065.0" fill="#6e7781" font-size="10.5" text-anchor="middle">1.5×</text>
<line x1="609.1" y1="128" x2="609.1" y2="1043.0" stroke="#8b949e" stroke-width="1" opacity="0.35"/>
<text x="671.0" y="99.0" fill="#6e7781" font-size="10.5" text-anchor="middle">2×</text>
<text x="671.0" y="1065.0" fill="#6e7781" font-size="10.5" text-anchor="middle">2×</text>
<line x1="671.0" y1="128" x2="671.0" y2="1043.0" stroke="#8b949e" stroke-width="1" opacity="0.35"/>
<text x="758.1" y="99.0" fill="#6e7781" font-size="10.5" text-anchor="middle">3×</text>
<text x="758.1" y="1065.0" fill="#6e7781" font-size="10.5" text-anchor="middle">3×</text>
<line x1="758.1" y1="128" x2="758.1" y2="1043.0" stroke="#8b949e" stroke-width="1" opacity="0.35"/>
<rect x="499.4" y="128" width="43.1" height="915.0" fill="#8b949e" opacity="0.15"/>
<line x1="499.4" y1="128" x2="499.4" y2="1043.0" stroke="#8b949e" stroke-width="1" opacity="0.5"/>
<line x1="542.5" y1="128" x2="542.5" y2="1043.0" stroke="#8b949e" stroke-width="1" opacity="0.5"/>
<line x1="522.0" y1="128" x2="522.0" y2="1043.0" stroke="#6e7781" stroke-width="1.3"/>
<text x="522.0" y="117.0" fill="#6e7781" font-size="10" text-anchor="middle">±10 %</text>
<text x="483.4" y="117.0" fill="#6e7781" font-size="10.5" text-anchor="end">← predicted high · the card came in under</text>
<text x="558.5" y="117.0" fill="#6e7781" font-size="10.5">predicted low · the card came in over →</text>
<text x="522.0" y="1088.0" fill="#6e7781" font-size="10.5" text-anchor="middle">measured ÷ predicted · logarithmic, so equal distances are equal factors</text>
<text x="16.0" y="146.0" fill="#6e7781" font-size="11.5" font-weight="600">run 1 · 2026-08-18 · NVIDIA L40S</text>
<text x="844.0" y="146.0" fill="#6e7781" font-size="10.5" text-anchor="end">6 of 10 within ±10 %</text>
<line x1="522.0" y1="162.5" x2="316.2" y2="162.5" stroke="#cc7000" stroke-width="2" stroke-linecap="round" opacity="0.75"/>
<circle cx="311.2" cy="162.5" r="3.8" fill="none" stroke="#cc7000" stroke-width="1.8"/>
<text x="258.0" y="166.3" fill="#6e7781" font-size="11" text-anchor="end">max_num_seqs against TPOT p99</text>
<text x="844.0" y="166.3" fill="#6e7781" font-size="10.5" text-anchor="end">0.38×</text>
<rect x="16" y="170.0" width="828" height="15" fill="#8b949e" opacity="0.07"/>
<line x1="522.0" y1="177.5" x2="481.0" y2="177.5" stroke="#cc7000" stroke-width="2" stroke-linecap="round" opacity="0.75"/>
<circle cx="476.0" cy="177.5" r="3.8" fill="#cc7000"/>
<text x="258.0" y="181.3" fill="#6e7781" font-size="11" text-anchor="end">decode step c=1, eff_mem 0.70</text>
<text x="844.0" y="181.3" fill="#6e7781" font-size="10.5" text-anchor="end">0.81×</text>
<line x1="522.0" y1="192.5" x2="494.0" y2="192.5" stroke="#cc7000" stroke-width="2" stroke-linecap="round" opacity="0.75"/>
<circle cx="489.0" cy="192.5" r="3.8" fill="#cc7000"/>
<text x="258.0" y="196.3" fill="#6e7781" font-size="11" text-anchor="end">decode step c=32, eff_mem 0.70</text>
<text x="844.0" y="196.3" fill="#6e7781" font-size="10.5" text-anchor="end">0.86×</text>
<rect x="16" y="200.0" width="828" height="15" fill="#8b949e" opacity="0.07"/>
<line x1="522.0" y1="207.5" x2="507.0" y2="207.5" stroke="#2f81f7" stroke-width="2" stroke-linecap="round" opacity="0.75"/>
<circle cx="502.0" cy="207.5" r="3.8" fill="#2f81f7"/>
<text x="258.0" y="211.3" fill="#6e7781" font-size="11" text-anchor="end">seats by capacity, 4 000 ctx</text>
<text x="844.0" y="211.3" fill="#6e7781" font-size="10.5" text-anchor="end">0.91×</text>
<line x1="522.0" y1="222.5" x2="511.3" y2="222.5" stroke="#2f81f7" stroke-width="2" stroke-linecap="round" opacity="0.75"/>
<circle cx="506.3" cy="222.5" r="3.8" fill="#2f81f7"/>
<text x="258.0" y="226.3" fill="#6e7781" font-size="11" text-anchor="end">KV pool</text>
<text x="844.0" y="226.3" fill="#6e7781" font-size="10.5" text-anchor="end">0.93×</text>
<rect x="16" y="230.0" width="828" height="15" fill="#8b949e" opacity="0.07"/>
<line x1="522.0" y1="237.5" x2="517.6" y2="237.5" stroke="#2f81f7" stroke-width="2" stroke-linecap="round" opacity="0.75"/>
<circle cx="512.6" cy="237.5" r="3.8" fill="none" stroke="#2f81f7" stroke-width="1.8"/>
<text x="258.0" y="241.3" fill="#6e7781" font-size="11" text-anchor="end">decode step c=1, eff_mem 0.83</text>
<text x="844.0" y="241.3" fill="#6e7781" font-size="10.5" text-anchor="end">0.96×</text>
<line x1="522.0" y1="252.5" x2="520.2" y2="252.5" stroke="#2f81f7" stroke-width="2" stroke-linecap="round" opacity="0.75"/>
<circle cx="515.2" cy="252.5" r="3.8" fill="none" stroke="#2f81f7" stroke-width="1.8"/>
<text x="258.0" y="256.3" fill="#6e7781" font-size="11" text-anchor="end">max_num_seqs by latency, eff_mem 0.83</text>
<text x="844.0" y="256.3" fill="#6e7781" font-size="10.5" text-anchor="end">0.97×</text>
<rect x="16" y="260.0" width="828" height="15" fill="#8b949e" opacity="0.07"/>
<circle cx="525.6" cy="267.5" r="3.8" fill="none" stroke="#2f81f7" stroke-width="1.8"/>
<text x="258.0" y="271.3" fill="#6e7781" font-size="11" text-anchor="end">decode step c=32, eff_mem 0.83</text>
<text x="844.0" y="271.3" fill="#6e7781" font-size="10.5" text-anchor="end">1.02×</text>
<circle cx="527.5" cy="282.5" r="3.8" fill="#2f81f7"/>
<text x="258.0" y="286.3" fill="#6e7781" font-size="11" text-anchor="end">TTFT c=1, 4 000-token prompt</text>
<text x="844.0" y="286.3" fill="#6e7781" font-size="10.5" text-anchor="end">1.03×</text>
<rect x="16" y="290.0" width="828" height="15" fill="#8b949e" opacity="0.07"/>
<line x1="522.0" y1="297.5" x2="581.2" y2="297.5" stroke="#cc7000" stroke-width="2" stroke-linecap="round" opacity="0.75"/>
<circle cx="586.2" cy="297.5" r="3.8" fill="#cc7000"/>
<text x="258.0" y="301.3" fill="#6e7781" font-size="11" text-anchor="end">max_num_seqs by latency, eff_mem 0.70</text>
<text x="844.0" y="301.3" fill="#6e7781" font-size="10.5" text-anchor="end">1.35×</text>
<line x1="16" y1="310.0" x2="844" y2="310.0" stroke="#8b949e" stroke-width="1" opacity="0.45"/>
<text x="16.0" y="332.0" fill="#6e7781" font-size="11.5" font-weight="600">run 2 · 2026-08-23 · NVIDIA L40S</text>
<text x="844.0" y="332.0" fill="#6e7781" font-size="10.5" text-anchor="end">16 of 20 within ±10 %</text>
<line x1="522.0" y1="348.5" x2="316.2" y2="348.5" stroke="#cc7000" stroke-width="2" stroke-linecap="round" opacity="0.75"/>
<circle cx="311.2" cy="348.5" r="3.8" fill="#cc7000"/>
<text x="258.0" y="352.3" fill="#6e7781" font-size="11" text-anchor="end">TTFT p99 crossing 300 ms</text>
<text x="844.0" y="352.3" fill="#6e7781" font-size="10.5" text-anchor="end">0.38×</text>
<rect x="16" y="356.0" width="828" height="15" fill="#8b949e" opacity="0.07"/>
<line x1="522.0" y1="363.5" x2="450.3" y2="363.5" stroke="#cc7000" stroke-width="2" stroke-linecap="round" opacity="0.75"/>
<circle cx="445.3" cy="363.5" r="3.8" fill="#cc7000"/>
<text x="258.0" y="367.3" fill="#6e7781" font-size="11" text-anchor="end">max_num_seqs by TPOT p99</text>
<text x="844.0" y="367.3" fill="#6e7781" font-size="10.5" text-anchor="end">0.70×</text>
<line x1="522.0" y1="378.5" x2="507.0" y2="378.5" stroke="#2f81f7" stroke-width="2" stroke-linecap="round" opacity="0.75"/>
<circle cx="502.0" cy="378.5" r="3.8" fill="#2f81f7"/>
<text x="258.0" y="382.3" fill="#6e7781" font-size="11" text-anchor="end">worst step, chunk 1</text>
<text x="844.0" y="382.3" fill="#6e7781" font-size="10.5" text-anchor="end">0.91×</text>
<rect x="16" y="386.0" width="828" height="15" fill="#8b949e" opacity="0.07"/>
<line x1="522.0" y1="393.5" x2="512.2" y2="393.5" stroke="#2f81f7" stroke-width="2" stroke-linecap="round" opacity="0.75"/>
<circle cx="507.2" cy="393.5" r="3.8" fill="#2f81f7"/>
<text x="258.0" y="397.3" fill="#6e7781" font-size="11" text-anchor="end">worst step, chunk 4</text>
<text x="844.0" y="397.3" fill="#6e7781" font-size="10.5" text-anchor="end">0.93×</text>
<line x1="522.0" y1="408.5" x2="512.4" y2="408.5" stroke="#2f81f7" stroke-width="2" stroke-linecap="round" opacity="0.75"/>
<circle cx="507.4" cy="408.5" r="3.8" fill="#2f81f7"/>
<text x="258.0" y="412.3" fill="#6e7781" font-size="11" text-anchor="end">worst step, chunk 2</text>
<text x="844.0" y="412.3" fill="#6e7781" font-size="10.5" text-anchor="end">0.93×</text>
<rect x="16" y="416.0" width="828" height="15" fill="#8b949e" opacity="0.07"/>
<line x1="522.0" y1="423.5" x2="512.7" y2="423.5" stroke="#2f81f7" stroke-width="2" stroke-linecap="round" opacity="0.75"/>
<circle cx="507.7" cy="423.5" r="3.8" fill="#2f81f7"/>
<text x="258.0" y="427.3" fill="#6e7781" font-size="11" text-anchor="end">worst step, chunk 3</text>
<text x="844.0" y="427.3" fill="#6e7781" font-size="10.5" text-anchor="end">0.94×</text>
<circle cx="521.8" cy="438.5" r="3.8" fill="#2f81f7"/>
<text x="258.0" y="442.3" fill="#6e7781" font-size="11" text-anchor="end">seats by capacity, 1 600 ctx</text>
<text x="844.0" y="442.3" fill="#6e7781" font-size="10.5" text-anchor="end">1.00×</text>
<rect x="16" y="446.0" width="828" height="15" fill="#8b949e" opacity="0.07"/>
<circle cx="522.0" cy="453.5" r="3.8" fill="#2f81f7"/>
<text x="258.0" y="457.3" fill="#6e7781" font-size="11" text-anchor="end">seats by capacity, 4 100 ctx</text>
<text x="844.0" y="457.3" fill="#6e7781" font-size="10.5" text-anchor="end">1.00×</text>
<circle cx="522.0" cy="468.5" r="3.8" fill="#2f81f7"/>
<text x="258.0" y="472.3" fill="#6e7781" font-size="11" text-anchor="end">decode step c=13</text>
<text x="844.0" y="472.3" fill="#6e7781" font-size="10.5" text-anchor="end">1.00×</text>
<rect x="16" y="476.0" width="828" height="15" fill="#8b949e" opacity="0.07"/>
<circle cx="522.0" cy="483.5" r="3.8" fill="#2f81f7"/>
<text x="258.0" y="487.3" fill="#6e7781" font-size="11" text-anchor="end">FP8 KV pool multiplier</text>
<text x="844.0" y="487.3" fill="#6e7781" font-size="10.5" text-anchor="end">1.00×</text>
<circle cx="523.1" cy="498.5" r="3.8" fill="#2f81f7"/>
<text x="258.0" y="502.3" fill="#6e7781" font-size="11" text-anchor="end">KV pool</text>
<text x="844.0" y="502.3" fill="#6e7781" font-size="10.5" text-anchor="end">1.01×</text>
<rect x="16" y="506.0" width="828" height="15" fill="#8b949e" opacity="0.07"/>
<circle cx="525.3" cy="513.5" r="3.8" fill="#2f81f7"/>
<text x="258.0" y="517.3" fill="#6e7781" font-size="11" text-anchor="end">decode step c=32</text>
<text x="844.0" y="517.3" fill="#6e7781" font-size="10.5" text-anchor="end">1.02×</text>
<circle cx="525.3" cy="528.5" r="3.8" fill="#2f81f7"/>
<text x="258.0" y="532.3" fill="#6e7781" font-size="11" text-anchor="end">decode step, Poisson 0.5 req/s</text>
<text x="844.0" y="532.3" fill="#6e7781" font-size="10.5" text-anchor="end">1.02×</text>
<rect x="16" y="536.0" width="828" height="15" fill="#8b949e" opacity="0.07"/>
<circle cx="526.2" cy="543.5" r="3.8" fill="#2f81f7"/>
<text x="258.0" y="547.3" fill="#6e7781" font-size="11" text-anchor="end">FP8 decode step, n=13</text>
<text x="844.0" y="547.3" fill="#6e7781" font-size="10.5" text-anchor="end">1.02×</text>
<circle cx="526.6" cy="558.5" r="3.8" fill="#2f81f7"/>
<text x="258.0" y="562.3" fill="#6e7781" font-size="11" text-anchor="end">decode step, Poisson 2.5 req/s</text>
<text x="844.0" y="562.3" fill="#6e7781" font-size="10.5" text-anchor="end">1.02×</text>
<rect x="16" y="566.0" width="828" height="15" fill="#8b949e" opacity="0.07"/>
<line x1="522.0" y1="573.5" x2="526.8" y2="573.5" stroke="#2f81f7" stroke-width="2" stroke-linecap="round" opacity="0.75"/>
<circle cx="531.8" cy="573.5" r="3.8" fill="#2f81f7"/>
<text x="258.0" y="577.3" fill="#6e7781" font-size="11" text-anchor="end">FP8 decode step, n=26</text>
<text x="844.0" y="577.3" fill="#6e7781" font-size="10.5" text-anchor="end">1.05×</text>
<line x1="522.0" y1="588.5" x2="534.9" y2="588.5" stroke="#2f81f7" stroke-width="2" stroke-linecap="round" opacity="0.75"/>
<circle cx="539.9" cy="588.5" r="3.8" fill="#2f81f7"/>
<text x="258.0" y="592.3" fill="#6e7781" font-size="11" text-anchor="end">decode step, Poisson 3.0 req/s</text>
<text x="844.0" y="592.3" fill="#6e7781" font-size="10.5" text-anchor="end">1.09×</text>
<rect x="16" y="596.0" width="828" height="15" fill="#8b949e" opacity="0.07"/>
<line x1="522.0" y1="603.5" x2="535.1" y2="603.5" stroke="#2f81f7" stroke-width="2" stroke-linecap="round" opacity="0.75"/>
<circle cx="540.1" cy="603.5" r="3.8" fill="#2f81f7"/>
<text x="258.0" y="607.3" fill="#6e7781" font-size="11" text-anchor="end">decode step, Poisson 4.0 req/s</text>
<text x="844.0" y="607.3" fill="#6e7781" font-size="10.5" text-anchor="end">1.09×</text>
<line x1="522.0" y1="618.5" x2="571.0" y2="618.5" stroke="#cc7000" stroke-width="2" stroke-linecap="round" opacity="0.75"/>
<circle cx="576.0" cy="618.5" r="3.8" fill="#cc7000"/>
<text x="258.0" y="622.3" fill="#6e7781" font-size="11" text-anchor="end">TPOT p99 crossing</text>
<text x="844.0" y="622.3" fill="#6e7781" font-size="10.5" text-anchor="end">1.29×</text>
<rect x="16" y="626.0" width="828" height="15" fill="#8b949e" opacity="0.07"/>
<line x1="522.0" y1="633.5" x2="579.2" y2="633.5" stroke="#cc7000" stroke-width="2" stroke-linecap="round" opacity="0.75"/>
<circle cx="584.2" cy="633.5" r="3.8" fill="#cc7000"/>
<text x="258.0" y="637.3" fill="#6e7781" font-size="11" text-anchor="end">goodput peak</text>
<text x="844.0" y="637.3" fill="#6e7781" font-size="10.5" text-anchor="end">1.34×</text>
<line x1="16" y1="646.0" x2="844" y2="646.0" stroke="#8b949e" stroke-width="1" opacity="0.45"/>
<text x="16.0" y="668.0" fill="#6e7781" font-size="11.5" font-weight="600">run 3 · 2026-08-30 · NVIDIA L40S</text>
<text x="844.0" y="668.0" fill="#6e7781" font-size="10.5" text-anchor="end">5 of 10 within ±10 %</text>
<line x1="522.0" y1="684.5" x2="493.9" y2="684.5" stroke="#cc7000" stroke-width="2" stroke-linecap="round" opacity="0.75"/>
<circle cx="488.9" cy="684.5" r="3.8" fill="#cc7000"/>
<text x="258.0" y="688.3" fill="#6e7781" font-size="11" text-anchor="end">startup-log keys present</text>
<text x="844.0" y="688.3" fill="#6e7781" font-size="10.5" text-anchor="end">0.86×</text>
<rect x="16" y="692.0" width="828" height="15" fill="#8b949e" opacity="0.07"/>
<line x1="522.0" y1="699.5" x2="518.6" y2="699.5" stroke="#2f81f7" stroke-width="2" stroke-linecap="round" opacity="0.75"/>
<circle cx="513.6" cy="699.5" r="3.8" fill="#2f81f7"/>
<text x="258.0" y="703.3" fill="#6e7781" font-size="11" text-anchor="end">seat count, h = 0</text>
<text x="844.0" y="703.3" fill="#6e7781" font-size="10.5" text-anchor="end">0.96×</text>
<line x1="522.0" y1="714.5" x2="520.5" y2="714.5" stroke="#2f81f7" stroke-width="2" stroke-linecap="round" opacity="0.75"/>
<circle cx="515.5" cy="714.5" r="3.8" fill="#2f81f7"/>
<text x="258.0" y="718.3" fill="#6e7781" font-size="11" text-anchor="end">interference scales by (1 - h)</text>
<text x="844.0" y="718.3" fill="#6e7781" font-size="10.5" text-anchor="end">0.97×</text>
<rect x="16" y="722.0" width="828" height="15" fill="#8b949e" opacity="0.07"/>
<circle cx="520.9" cy="729.5" r="3.8" fill="#2f81f7"/>
<text x="258.0" y="733.3" fill="#6e7781" font-size="11" text-anchor="end">KV pool</text>
<text x="844.0" y="733.3" fill="#6e7781" font-size="10.5" text-anchor="end">1.00×</text>
<circle cx="522.0" cy="744.5" r="3.8" fill="#2f81f7"/>
<text x="258.0" y="748.3" fill="#6e7781" font-size="11" text-anchor="end">measured h at cached levels</text>
<text x="844.0" y="748.3" fill="#6e7781" font-size="10.5" text-anchor="end">1.00×</text>
<rect x="16" y="752.0" width="828" height="15" fill="#8b949e" opacity="0.07"/>
<line x1="522.0" y1="759.5" x2="530.3" y2="759.5" stroke="#2f81f7" stroke-width="2" stroke-linecap="round" opacity="0.75"/>
<circle cx="535.3" cy="759.5" r="3.8" fill="#2f81f7"/>
<text x="258.0" y="763.3" fill="#6e7781" font-size="11" text-anchor="end">decode step at c=24, cascade</text>
<text x="844.0" y="763.3" fill="#6e7781" font-size="10.5" text-anchor="end">1.06×</text>
<line x1="522.0" y1="774.5" x2="597.5" y2="774.5" stroke="#cc7000" stroke-width="2" stroke-linecap="round" opacity="0.75"/>
<circle cx="602.5" cy="774.5" r="3.8" fill="#cc7000"/>
<text x="258.0" y="778.3" fill="#6e7781" font-size="11" text-anchor="end">TPOT p50 crossing 50 ms</text>
<text x="844.0" y="778.3" fill="#6e7781" font-size="10.5" text-anchor="end">1.45×</text>
<rect x="16" y="782.0" width="828" height="15" fill="#8b949e" opacity="0.07"/>
<line x1="522.0" y1="789.5" x2="623.8" y2="789.5" stroke="#cc7000" stroke-width="2" stroke-linecap="round" opacity="0.75"/>
<circle cx="628.8" cy="789.5" r="3.8" fill="#cc7000"/>
<text x="258.0" y="793.3" fill="#6e7781" font-size="11" text-anchor="end">seat count, h = 0.8</text>
<text x="844.0" y="793.3" fill="#6e7781" font-size="10.5" text-anchor="end">1.64×</text>
<line x1="522.0" y1="804.5" x2="652.4" y2="804.5" stroke="#cc7000" stroke-width="2" stroke-linecap="round" opacity="0.75"/>
<circle cx="657.4" cy="804.5" r="3.8" fill="#cc7000"/>
<text x="258.0" y="808.3" fill="#6e7781" font-size="11" text-anchor="end">ITL p99 under caching</text>
<text x="844.0" y="808.3" fill="#6e7781" font-size="10.5" text-anchor="end">1.88×</text>
<rect x="16" y="812.0" width="828" height="15" fill="#8b949e" opacity="0.07"/>
<line x1="522.0" y1="819.5" x2="710.6" y2="819.5" stroke="#cc7000" stroke-width="2" stroke-linecap="round" opacity="0.75"/>
<circle cx="715.6" cy="819.5" r="3.8" fill="#cc7000"/>
<text x="258.0" y="823.3" fill="#6e7781" font-size="11" text-anchor="end">TTFT p99 crossing 300 ms</text>
<text x="844.0" y="823.3" fill="#6e7781" font-size="10.5" text-anchor="end">2.46×</text>
<line x1="16" y1="832.0" x2="844" y2="832.0" stroke="#8b949e" stroke-width="1" opacity="0.45"/>
<text x="16.0" y="854.0" fill="#6e7781" font-size="11.5" font-weight="600">MI300X run 1 · 2026-09-27 · AMD Instinct MI300X</text>
<text x="844.0" y="854.0" fill="#6e7781" font-size="10.5" text-anchor="end">3 of 12 within ±10 %</text>
<line x1="522.0" y1="870.5" x2="515.6" y2="870.5" stroke="#2f81f7" stroke-width="2" stroke-linecap="round" opacity="0.75"/>
<circle cx="510.6" cy="870.5" r="3.8" fill="none" stroke="#2f81f7" stroke-width="1.8"/>
<text x="258.0" y="874.3" fill="#6e7781" font-size="11" text-anchor="end">decode step c=1, eff_mem 0.46</text>
<text x="844.0" y="874.3" fill="#6e7781" font-size="10.5" text-anchor="end">0.95×</text>
<rect x="16" y="878.0" width="828" height="15" fill="#8b949e" opacity="0.07"/>
<circle cx="525.5" cy="885.5" r="3.8" fill="none" stroke="#2f81f7" stroke-width="1.8"/>
<text x="258.0" y="889.3" fill="#6e7781" font-size="11" text-anchor="end">decode step c=32, eff_mem 0.46</text>
<text x="844.0" y="889.3" fill="#6e7781" font-size="10.5" text-anchor="end">1.02×</text>
<line x1="522.0" y1="900.5" x2="529.3" y2="900.5" stroke="#2f81f7" stroke-width="2" stroke-linecap="round" opacity="0.75"/>
<circle cx="534.3" cy="900.5" r="3.8" fill="#2f81f7"/>
<text x="258.0" y="904.3" fill="#6e7781" font-size="11" text-anchor="end">KV pool</text>
<text x="844.0" y="904.3" fill="#6e7781" font-size="10.5" text-anchor="end">1.06×</text>
<rect x="16" y="908.0" width="828" height="15" fill="#8b949e" opacity="0.07"/>
<line x1="522.0" y1="915.5" x2="538.5" y2="915.5" stroke="#cc7000" stroke-width="2" stroke-linecap="round" opacity="0.75"/>
<circle cx="543.5" cy="915.5" r="3.8" fill="#cc7000"/>
<text x="258.0" y="919.3" fill="#6e7781" font-size="11" text-anchor="end">TTFT doubling, 2 000 to 4 000</text>
<text x="844.0" y="919.3" fill="#6e7781" font-size="10.5" text-anchor="end">1.10×</text>
<line x1="522.0" y1="930.5" x2="540.6" y2="930.5" stroke="#cc7000" stroke-width="2" stroke-linecap="round" opacity="0.75"/>
<circle cx="545.6" cy="930.5" r="3.8" fill="none" stroke="#cc7000" stroke-width="1.8"/>
<text x="258.0" y="934.3" fill="#6e7781" font-size="11" text-anchor="end">decode step c=8, eff_mem 0.46</text>
<text x="844.0" y="934.3" fill="#6e7781" font-size="10.5" text-anchor="end">1.12×</text>
<rect x="16" y="938.0" width="828" height="15" fill="#8b949e" opacity="0.07"/>
<line x1="522.0" y1="945.5" x2="544.9" y2="945.5" stroke="#cc7000" stroke-width="2" stroke-linecap="round" opacity="0.75"/>
<circle cx="549.9" cy="945.5" r="3.8" fill="#cc7000"/>
<text x="258.0" y="949.3" fill="#6e7781" font-size="11" text-anchor="end">KV pool after the L40S's 7 %</text>
<text x="844.0" y="949.3" fill="#6e7781" font-size="10.5" text-anchor="end">1.14×</text>
<line x1="522.0" y1="960.5" x2="565.0" y2="960.5" stroke="#cc7000" stroke-width="2" stroke-linecap="round" opacity="0.75"/>
<circle cx="570.0" cy="960.5" r="3.8" fill="#cc7000"/>
<text x="258.0" y="964.3" fill="#6e7781" font-size="11" text-anchor="end">TTFT doubling, 4 000 to 8 000</text>
<text x="844.0" y="964.3" fill="#6e7781" font-size="10.5" text-anchor="end">1.25×</text>
<rect x="16" y="968.0" width="828" height="15" fill="#8b949e" opacity="0.07"/>
<line x1="522.0" y1="975.5" x2="595.9" y2="975.5" stroke="#cc7000" stroke-width="2" stroke-linecap="round" opacity="0.75"/>
<circle cx="600.9" cy="975.5" r="3.8" fill="#cc7000"/>
<text x="258.0" y="979.3" fill="#6e7781" font-size="11" text-anchor="end">decode step c=1, eff_mem 0.70</text>
<text x="844.0" y="979.3" fill="#6e7781" font-size="10.5" text-anchor="end">1.44×</text>
<line x1="522.0" y1="990.5" x2="613.5" y2="990.5" stroke="#cc7000" stroke-width="2" stroke-linecap="round" opacity="0.75"/>
<circle cx="618.5" cy="990.5" r="3.8" fill="#cc7000"/>
<text x="258.0" y="994.3" fill="#6e7781" font-size="11" text-anchor="end">decode step c=32, eff_mem 0.70</text>
<text x="844.0" y="994.3" fill="#6e7781" font-size="10.5" text-anchor="end">1.57×</text>
<rect x="16" y="998.0" width="828" height="15" fill="#8b949e" opacity="0.07"/>
<line x1="522.0" y1="1005.5" x2="710.6" y2="1005.5" stroke="#cc7000" stroke-width="2" stroke-linecap="round" opacity="0.75"/>
<circle cx="715.6" cy="1005.5" r="3.8" fill="#cc7000"/>
<text x="258.0" y="1009.3" fill="#6e7781" font-size="11" text-anchor="end">TTFT c=1, 2 000-token prompt</text>
<text x="844.0" y="1009.3" fill="#6e7781" font-size="10.5" text-anchor="end">2.46×</text>
<line x1="522.0" y1="1020.5" x2="732.0" y2="1020.5" stroke="#cc7000" stroke-width="2" stroke-linecap="round" opacity="0.75"/>
<circle cx="737.0" cy="1020.5" r="3.8" fill="#cc7000"/>
<text x="258.0" y="1024.3" fill="#6e7781" font-size="11" text-anchor="end">TTFT c=1, 4 000-token prompt</text>
<text x="844.0" y="1024.3" fill="#6e7781" font-size="10.5" text-anchor="end">2.72×</text>
<rect x="16" y="1028.0" width="828" height="15" fill="#8b949e" opacity="0.07"/>
<line x1="522.0" y1="1035.5" x2="767.0" y2="1035.5" stroke="#cc7000" stroke-width="2" stroke-linecap="round" opacity="0.75"/>
<polygon points="778.0,1035.5 766.0,1030.5 766.0,1040.5" fill="#cc7000"/>
<text x="258.0" y="1039.3" fill="#6e7781" font-size="11" text-anchor="end">TTFT c=1, 8 000-token prompt</text>
<text x="844.0" y="1039.3" fill="#6e7781" font-size="10.5" text-anchor="end">3.40×</text>
</svg>
